<svg width="250" height="75" viewBox="0 0 250 75" fill="none" xmlns="http://www.w3.org/2000/svg">
    <mask id="path-1-inside-1_1_103" fill="white">
        <path fill-rule="evenodd" clip-rule="evenodd" d="M10 0H240V10H250V65H240V75H10V65H0V10H10V0Z"/>
    </mask>
    <path fill-rule="evenodd" clip-rule="evenodd" d="M10 0H240V10H250V65H240V75H10V65H0V10H10V0Z" fill="#C88445"/>
    <path d="M240 0H246V-6H240V0ZM10 0V-6H4V0H10ZM240 10H234V16H240V10ZM250 10H256V4H250V10ZM250 65V71H256V65H250ZM240 65V59H234V65H240ZM240 75V81H246V75H240ZM10 75H4V81H10V75ZM10 65H16V59H10V65ZM0 65H-6V71H0V65ZM0 10V4H-6V10H0ZM10 10V16H16V10H10ZM240 -6H10V6H240V-6ZM246 10V0H234V10H246ZM250 4H240V16H250V4ZM256 65V10H244V65H256ZM240 71H250V59H240V71ZM246 75V65H234V75H246ZM10 81H240V69H10V81ZM4 65V75H16V65H4ZM0 71H10V59H0V71ZM-6 10V65H6V10H-6ZM10 4H0V16H10V4ZM4 0V10H16V0H4Z" fill="#A5652B" mask="url(#path-1-inside-1_1_103)"/>
</svg>
