<svg width="315" height="363" viewBox="0 0 315 363" fill="none" xmlns="http://www.w3.org/2000/svg">
    <mask id="path-1-inside-1_1_75" fill="white">
        <path fill-rule="evenodd" clip-rule="evenodd" d="M20.0637 0H294.936V20.0637H315V342.086H294.936V362.15H20.0637V342.086H0V20.0637H20.0637V0Z"/>
    </mask>
    <path fill-rule="evenodd" clip-rule="evenodd" d="M20.0637 0H294.936V20.0637H315V342.086H294.936V362.15H20.0637V342.086H0V20.0637H20.0637V0Z" fill="#E48832"/>
    <path d="M294.936 0H304.936V-10H294.936V0ZM20.0637 0V-10H10.0637V0H20.0637ZM294.936 20.0637H284.936V30.0637H294.936V20.0637ZM315 20.0637H325V10.0637H315V20.0637ZM315 342.086V352.086H325V342.086H315ZM294.936 342.086V332.086H284.936V342.086H294.936ZM294.936 362.15V372.15H304.936V362.15H294.936ZM20.0637 362.15H10.0637V372.15H20.0637V362.15ZM20.0637 342.086H30.0637V332.086H20.0637V342.086ZM0 342.086H-10V352.086H0V342.086ZM0 20.0637V10.0637H-10V20.0637H0ZM20.0637 20.0637V30.0637H30.0637V20.0637H20.0637ZM294.936 -10H20.0637V10H294.936V-10ZM304.936 20.0637V0H284.936V20.0637H304.936ZM315 10.0637H294.936V30.0637H315V10.0637ZM325 342.086V20.0637H305V342.086H325ZM294.936 352.086H315V332.086H294.936V352.086ZM304.936 362.15V342.086H284.936V362.15H304.936ZM20.0637 372.15H294.936V352.15H20.0637V372.15ZM10.0637 342.086V362.15H30.0637V342.086H10.0637ZM0 352.086H20.0637V332.086H0V352.086ZM-10 20.0637V342.086H10V20.0637H-10ZM20.0637 10.0637H0V30.0637H20.0637V10.0637ZM10.0637 0V20.0637H30.0637V0H10.0637Z" fill="#BA691D" mask="url(#path-1-inside-1_1_75)"/>
</svg>
